<?xml version="1.0" encoding="utf-8" ?>
<svg baseProfile="full" height="512px" version="1.1" viewBox="0 0 576 512" width="576px" xmlns="http://www.w3.org/2000/svg" xmlns:ev="http://www.w3.org/2001/xml-events" xmlns:xlink="http://www.w3.org/1999/xlink"><defs /><path d="M 425.01,378.42 L 419.42,378.42 L 413.83,378.42 L 408.23,378.42 L 402.64,378.42 L 397.05,378.42 L 391.46,378.42 L 385.86,378.42 L 380.27,378.42 L 374.68,378.42 L 369.09,378.42 L 363.50,378.42 L 357.90,378.42 L 352.31,378.42 L 346.72,378.42 L 341.13,378.42 L 335.53,378.42 L 329.94,378.42 L 324.35,378.42 L 318.76,378.42 L 313.17,378.42 L 307.57,378.42 L 301.98,378.42 L 296.39,378.42 L 290.80,378.42 L 285.20,378.42 L 279.61,378.42 L 274.02,378.42 L 268.43,378.42 L 262.83,378.42 L 257.24,378.42 L 251.65,378.42 L 246.06,378.42 L 240.47,378.42 L 234.87,378.42 L 229.28,378.42 L 223.69,378.42 L 218.10,378.42 L 212.50,378.42 L 206.91,378.42 L 201.34,372.87 L 201.32,372.85 L 195.73,372.85 L 190.14,372.85 L 184.56,367.30 L 184.54,367.29 L 178.97,361.74 L 178.95,361.72 L 173.38,356.17 L 173.38,350.61 L 173.38,345.04 L 173.38,339.48 L 173.38,333.91 L 173.38,328.35 L 173.38,322.78 L 173.38,317.22 L 173.38,311.65 L 173.38,306.09 L 173.38,300.52 L 173.38,294.96 L 173.38,289.39 L 173.38,283.83 L 173.38,278.26 L 173.38,272.70 L 173.38,267.13 L 173.38,261.57 L 173.38,256.00 L 173.38,250.43 L 173.38,244.87 L 173.38,239.30 L 173.38,233.74 L 173.38,228.17 L 173.38,222.61 L 173.38,217.04 L 173.38,211.48 L 173.38,205.91 L 173.38,200.35 L 173.38,194.78 L 173.38,189.22 L 173.38,183.65 L 173.38,178.09 L 173.38,172.52 L 173.38,166.96 L 173.38,161.39 L 173.38,155.83 L 173.38,150.26 L 173.38,144.70 L 173.38,139.13 L 173.38,133.57 L 173.38,128.00 L 173.38,122.43 L 173.38,116.87 L 173.38,111.30 L 178.95,105.76 L 178.97,105.74 L 178.97,100.17 L 184.54,94.63 L 190.14,94.63 L 190.15,94.61 L 195.73,89.06 L 201.32,89.06 L 206.91,89.06 L 212.50,89.06 L 218.10,89.06 L 223.69,89.06 L 229.28,89.06 L 234.87,89.06 L 240.47,89.06 L 246.06,89.06 L 251.65,89.06 L 257.24,89.06 L 262.83,89.06 L 268.43,89.06 L 274.02,89.06 L 279.61,89.06 L 285.20,89.06 L 290.80,89.06 L 296.39,89.06 L 301.98,89.06 L 307.57,89.06 L 313.17,89.06 L 318.76,89.06 L 324.35,89.06 L 329.94,89.06 L 335.53,89.06 L 341.13,89.06 L 346.72,89.06 L 352.31,89.06 L 357.90,89.06 L 363.50,89.06 L 369.09,89.06 L 374.68,89.06 L 380.27,89.06 L 385.86,89.06 L 391.46,89.06 L 397.05,89.06 L 402.64,89.06 L 408.23,89.06 L 413.83,89.06 L 419.42,89.06 L 425.01,89.06 L 430.60,89.06 L 436.19,89.06 L 441.77,94.61 L 441.79,94.63 L 447.38,94.63 L 452.95,100.17 L 452.95,105.74 L 452.97,105.76 L 458.55,111.30 L 458.55,116.87 L 458.56,116.89 L 464.14,122.43 L 464.14,128.00 L 464.14,133.57 L 464.14,139.13 L 464.14,144.70 L 464.14,150.26 L 464.14,155.83 L 464.14,161.39 L 464.14,166.96 L 464.14,172.52 L 464.14,178.09 L 464.14,183.65 L 464.14,189.22 L 464.14,194.78 L 464.14,200.35 L 464.14,205.91 L 464.14,211.48 L 464.14,217.04 L 464.14,222.61 L 464.14,228.17 L 464.14,233.74 L 464.14,239.30 L 464.14,244.87 L 464.14,250.43 L 464.14,256.00 L 464.14,261.57 L 464.14,267.13 L 464.14,272.70 L 464.14,278.26 L 464.14,283.83 L 464.14,289.39 L 464.14,294.96 L 464.14,300.52 L 464.14,306.09 L 464.14,311.65 L 464.14,317.22 L 464.14,322.78 L 464.14,328.35 L 464.14,333.91 L 464.14,339.48 L 464.14,345.04 L 458.56,350.59 L 458.55,350.61 L 458.55,356.17 L 452.97,361.72 L 452.95,361.74 L 447.38,367.29 L 447.36,367.30 L 441.79,372.85 L 436.19,372.85 L 430.60,372.85 L 430.58,372.87 L 425.01,378.42 Z M 296.41,322.78 L 301.98,317.23 L 307.57,317.23 L 313.17,317.23 L 313.18,317.22 L 318.76,311.67 L 318.77,311.65 L 324.35,306.10 L 324.37,306.09 L 329.94,300.54 L 329.96,300.52 L 329.96,294.96 L 329.96,289.39 L 335.53,283.84 L 335.55,283.83 L 335.55,278.26 L 335.55,272.70 L 335.55,267.13 L 335.55,261.57 L 335.55,256.00 L 335.55,250.43 L 335.55,244.87 L 335.55,239.30 L 335.55,233.74 L 335.55,228.17 L 335.55,222.61 L 335.55,217.04 L 335.55,211.48 L 335.55,205.91 L 335.55,200.35 L 335.55,194.78 L 335.55,189.22 L 335.55,183.65 L 341.13,178.10 L 346.72,178.10 L 352.31,178.10 L 357.90,178.10 L 363.50,178.10 L 369.09,178.10 L 374.68,178.10 L 380.27,178.10 L 385.86,178.10 L 385.88,178.09 L 391.46,172.54 L 391.47,172.52 L 391.47,166.96 L 391.47,161.39 L 391.47,155.83 L 391.47,150.26 L 391.47,144.70 L 391.46,144.68 L 385.88,139.13 L 385.86,139.11 L 380.27,139.11 L 374.68,139.11 L 369.09,139.11 L 363.50,139.11 L 357.90,139.11 L 352.31,139.11 L 346.72,139.11 L 341.13,139.11 L 335.53,139.11 L 329.94,139.11 L 324.35,139.11 L 318.76,139.11 L 318.74,139.13 L 318.74,144.70 L 318.74,150.26 L 318.74,155.83 L 318.74,161.39 L 318.74,166.96 L 318.74,172.52 L 318.74,178.09 L 318.74,183.65 L 318.74,189.22 L 318.74,194.78 L 318.74,200.35 L 318.74,205.91 L 318.74,211.48 L 318.74,217.04 L 318.74,222.61 L 318.74,228.17 L 318.74,233.74 L 313.17,239.29 L 307.59,233.74 L 307.57,233.72 L 301.98,233.72 L 296.39,233.72 L 290.80,233.72 L 285.20,233.72 L 279.61,233.72 L 274.02,233.72 L 274.00,233.74 L 268.43,239.29 L 262.83,239.29 L 262.82,239.30 L 257.24,244.85 L 257.23,244.87 L 251.65,250.42 L 251.63,250.43 L 251.63,256.00 L 246.06,261.55 L 246.04,261.57 L 246.04,267.13 L 246.04,272.70 L 246.04,278.26 L 246.04,283.83 L 246.04,289.39 L 246.04,294.96 L 246.06,294.97 L 251.63,300.52 L 251.63,306.09 L 251.65,306.10 L 257.23,311.65 L 257.24,311.67 L 262.82,317.22 L 262.83,317.23 L 268.43,317.23 L 274.02,317.23 L 279.59,322.78 L 279.61,322.80 L 285.20,322.80 L 290.80,322.80 L 296.39,322.80 L 296.41,322.78 Z M 385.86,450.77 L 380.27,450.77 L 374.68,450.77 L 369.09,450.77 L 363.50,450.77 L 357.90,450.77 L 352.31,450.77 L 346.72,450.77 L 341.13,450.77 L 335.53,450.77 L 329.94,450.77 L 324.35,450.77 L 318.76,450.77 L 313.17,450.77 L 307.57,450.77 L 301.98,450.77 L 296.39,450.77 L 290.80,450.77 L 285.20,450.77 L 279.61,450.77 L 274.02,450.77 L 268.43,450.77 L 262.83,450.77 L 257.24,450.77 L 251.65,450.77 L 246.06,450.77 L 240.47,450.77 L 234.87,450.77 L 229.28,450.77 L 223.69,450.77 L 218.10,450.77 L 212.50,450.77 L 206.91,450.77 L 201.32,450.77 L 195.73,450.77 L 190.14,450.77 L 184.54,450.77 L 178.95,450.77 L 173.36,450.77 L 167.77,450.77 L 162.17,450.77 L 156.58,450.77 L 150.99,450.77 L 145.40,450.77 L 139.81,450.77 L 134.21,450.77 L 128.64,445.22 L 128.62,445.20 L 123.03,445.20 L 117.44,445.20 L 111.86,439.65 L 111.84,439.63 L 106.27,434.09 L 106.27,428.52 L 106.25,428.50 L 100.68,422.96 L 100.68,417.39 L 100.68,411.83 L 100.68,406.26 L 100.68,400.70 L 100.68,395.13 L 100.68,389.57 L 100.68,384.00 L 100.68,378.43 L 100.68,372.87 L 100.68,367.30 L 100.68,361.74 L 100.68,356.17 L 100.68,350.61 L 100.68,345.04 L 100.68,339.48 L 100.68,333.91 L 100.68,328.35 L 100.68,322.78 L 100.68,317.22 L 100.68,311.65 L 100.68,306.09 L 100.68,300.52 L 100.68,294.96 L 100.68,289.39 L 100.68,283.83 L 100.68,278.26 L 100.68,272.70 L 100.68,267.13 L 100.68,261.57 L 100.68,256.00 L 100.68,250.43 L 100.68,244.87 L 100.68,239.30 L 100.68,233.74 L 100.68,228.17 L 100.68,222.61 L 100.68,217.04 L 100.68,211.48 L 100.68,205.91 L 100.68,200.35 L 100.68,194.78 L 100.68,189.22 L 100.68,183.65 L 100.68,178.09 L 100.68,172.52 L 100.68,166.96 L 106.25,161.41 L 111.84,161.41 L 117.44,161.41 L 123.03,161.41 L 128.62,161.41 L 134.20,166.96 L 134.20,172.52 L 134.20,178.09 L 134.20,183.65 L 134.20,189.22 L 134.20,194.78 L 134.20,200.35 L 134.20,205.91 L 134.20,211.48 L 134.20,217.04 L 134.20,222.61 L 134.20,228.17 L 134.20,233.74 L 134.20,239.30 L 134.20,244.87 L 134.20,250.43 L 134.20,256.00 L 134.20,261.57 L 134.20,267.13 L 134.20,272.70 L 134.20,278.26 L 134.20,283.83 L 134.20,289.39 L 134.20,294.96 L 134.20,300.52 L 134.20,306.09 L 134.20,311.65 L 134.20,317.22 L 134.20,322.78 L 134.20,328.35 L 134.20,333.91 L 134.20,339.48 L 134.20,345.04 L 134.20,350.61 L 134.20,356.17 L 134.20,361.74 L 134.20,367.30 L 134.20,372.87 L 134.20,378.43 L 134.20,384.00 L 134.20,389.57 L 134.20,395.13 L 134.20,400.70 L 134.20,406.26 L 134.20,411.83 L 134.21,411.84 L 139.81,411.84 L 145.40,411.84 L 150.99,411.84 L 156.58,411.84 L 162.17,411.84 L 167.77,411.84 L 173.36,411.84 L 178.95,411.84 L 184.54,411.84 L 190.14,411.84 L 195.73,411.84 L 201.32,411.84 L 206.91,411.84 L 212.50,411.84 L 218.10,411.84 L 223.69,411.84 L 229.28,411.84 L 234.87,411.84 L 240.47,411.84 L 246.06,411.84 L 251.65,411.84 L 257.24,411.84 L 262.83,411.84 L 268.43,411.84 L 274.02,411.84 L 279.61,411.84 L 285.20,411.84 L 290.80,411.84 L 296.39,411.84 L 301.98,411.84 L 307.57,411.84 L 313.17,411.84 L 318.76,411.84 L 324.35,411.84 L 329.94,411.84 L 335.53,411.84 L 341.13,411.84 L 346.72,411.84 L 352.31,411.84 L 357.90,411.84 L 363.50,411.84 L 369.09,411.84 L 374.68,411.84 L 380.27,411.84 L 385.86,411.84 L 391.44,417.39 L 391.44,422.96 L 391.44,428.52 L 391.44,434.09 L 391.44,439.65 L 391.44,445.22 L 385.86,450.77 Z" fill="white" /></svg>